<?xml version="1.0" encoding="UTF-8"?>
<svg version="1.1" xmlns="http://www.w3.org/2000/svg" width="1024" height="1024">
<path d="M0 0 C337.92 0 675.84 0 1024 0 C1024 337.92 1024 675.84 1024 1024 C686.08 1024 348.16 1024 0 1024 C0 686.08 0 348.16 0 0 Z " fill="#FDFDFD" transform="translate(0,0)"/>
<path d="M0 0 C1.03880067 -0.00445668 1.03880067 -0.00445668 2.09858721 -0.0090034 C4.42459827 -0.01769121 6.75055786 -0.01919871 9.07658386 -0.02069092 C10.74214793 -0.02531903 12.40771094 -0.03034369 14.07327271 -0.03573608 C18.6022787 -0.0488627 23.13126986 -0.05530555 27.66029191 -0.05974674 C30.48942849 -0.06267704 33.31856101 -0.06678177 36.14769554 -0.07125092 C44.9982202 -0.08492652 53.84873558 -0.09459288 62.69927007 -0.09845281 C72.91811985 -0.10293389 83.13683589 -0.12048385 93.355645 -0.1494534 C101.25297661 -0.17106508 109.15027058 -0.18115681 117.04763144 -0.18249393 C121.76506068 -0.18354232 126.48236422 -0.18945745 131.19976234 -0.20731354 C135.6378226 -0.22378534 140.07566253 -0.22595407 144.51374245 -0.21717453 C146.14152618 -0.21640368 147.76932172 -0.22075324 149.39707565 -0.23063278 C151.62183154 -0.24334255 153.84580596 -0.23748138 156.07055664 -0.22705078 C157.31476789 -0.22851734 158.55897913 -0.2299839 159.84089375 -0.2314949 C165.18709909 0.35595937 169.0975113 2.4108241 172.47575378 6.57794189 C172.95528503 7.15415283 173.43481628 7.73036377 173.92887878 8.32403564 C176.44290876 11.84519208 177.4782199 14.44418857 177.41001892 18.79698181 C177.39641579 20.19457733 177.39641579 20.19457733 177.38253784 21.6204071 C177.3627034 22.63595169 177.34286896 23.65149628 177.32243347 24.69781494 C177.2966391 26.92727916 177.27107635 29.15674606 177.24571228 31.38621521 C177.2203603 33.1606302 177.2203603 33.1606302 177.19449615 34.97089195 C177.1144659 41.25698996 177.09916506 47.54338201 177.07341003 53.82989502 C177.03785542 61.82074852 176.9833638 69.80897056 176.85221863 77.79888916 C176.74783819 84.26215969 176.71309125 90.7226508 176.72316742 97.18671608 C176.71456717 99.63741434 176.68120881 102.08816761 176.62146759 104.53815269 C176.2914039 118.65095329 176.96252495 128.32281967 186.91068649 138.93344402 C188.11257413 140.14000125 189.32812246 141.33315429 190.55896759 142.51015663 C192.89669244 144.79668767 194.88289011 147.2663478 196.91325378 149.82794189 C199.31022232 152.78916856 201.72345346 155.73103143 204.18278503 158.64044189 C205.19773069 159.8690944 206.21206053 161.09825589 207.22575378 162.32794189 C207.70746033 162.88634766 208.18916687 163.44475342 208.68547058 164.02008057 C212.20441122 168.34683432 213.05256649 171.55226518 213.22575378 177.14044189 C212.06087039 180.57037634 211.02843569 182.47438145 208.24434662 184.78460121 C203.8476577 186.75943188 199.82172996 186.55441245 195.05326843 186.52139282 C194.01938539 186.52607279 192.98550235 186.53075277 191.92028952 186.53557456 C188.45101746 186.54755406 184.98213825 186.53805552 181.51286316 186.52862549 C179.02765675 186.53268986 176.54245215 186.53803098 174.05725098 186.54455566 C168.00491119 186.55682814 161.95272596 186.5550139 155.90039217 186.54631774 C150.98158962 186.53954283 146.06281834 186.53862364 141.14401245 186.54188919 C140.44396712 186.54234889 139.74392179 186.54280859 139.02266297 186.54328222 C137.60053828 186.54424139 136.17841361 186.54521403 134.75628895 186.54619999 C121.42073228 186.55475481 108.08523747 186.54491833 94.74969095 186.52879889 C83.30694784 186.51539561 71.86429603 186.51772368 60.42155457 186.53155518 C47.1337485 186.54760938 33.84599665 186.55393083 20.55818224 186.54471838 C19.14128654 186.54376274 17.72439083 186.54281962 16.30749512 186.54188919 C15.61035372 186.54142636 14.91321232 186.54096354 14.19494542 186.54048669 C9.28199912 186.53789632 4.36908721 186.5422688 -0.54385376 186.54932785 C-7.15615681 186.55861974 -13.76831394 186.55200509 -20.38060951 186.53464508 C-22.81024704 186.53067159 -25.23989906 186.53182895 -27.66953087 186.53843307 C-30.98047181 186.54660432 -34.29085563 186.53637996 -37.60176086 186.52139282 C-38.56819598 186.52808499 -39.53463109 186.53477715 -40.53035212 186.54167211 C-45.42466114 186.49856175 -48.82442027 186.36984119 -52.77424622 183.14044189 C-55.01990565 180.35272673 -55.72522908 178.42365204 -56.33674622 174.89044189 C-54.95005043 165.64580335 -46.75800909 158.46943412 -40.80549622 151.63653564 C-36.6803339 146.8985587 -32.69433755 142.0491377 -28.77424622 137.14044189 C-28.20660144 136.53022186 -27.63895666 135.92000183 -27.05411053 135.29129028 C-21.75115603 129.24997762 -20.77664341 124.88702886 -20.95124817 116.98028564 C-20.94472229 115.36139938 -20.94472229 115.36139938 -20.93806458 113.70980835 C-20.9310876 110.16503 -20.97232986 106.62247034 -21.01252747 103.07794189 C-21.01330039 100.60129651 -21.01041025 98.12464753 -21.00402832 95.64801025 C-20.99445164 89.1410657 -21.02303473 82.63492071 -21.06318665 76.12811279 C-21.12470946 65.7148182 -21.14438436 55.30172885 -21.13336754 44.88827515 C-21.1374627 41.2603152 -21.16773706 37.63323273 -21.2003479 34.00543213 C-21.20423046 31.77048895 -21.20718374 29.5355439 -21.20906067 27.30059814 C-21.22508835 26.29981232 -21.24111603 25.29902649 -21.25762939 24.26791382 C-21.22803926 16.92822666 -19.77355979 10.70091736 -14.95783997 4.98419189 C-14.09352356 4.31903564 -14.09352356 4.31903564 -13.21174622 3.64044189 C-12.63295715 3.17637939 -12.05416809 2.71231689 -11.45783997 2.23419189 C-7.73929768 -0.18156643 -4.30669162 0.01030582 0 0 Z " fill="#007ECD" transform="translate(330.7742462158203,199.85955810546875)"/>
<path d="M0 0 C1.69878296 -0.00744736 1.69878296 -0.00744736 3.43188477 -0.01504517 C7.17253227 -0.02962976 10.91313734 -0.03646327 14.65380859 -0.04199219 C17.26207479 -0.04774743 19.87034099 -0.05350512 22.47860718 -0.05926514 C27.24938499 -0.06882502 32.02015372 -0.07472857 36.79093993 -0.07776189 C43.78416767 -0.08223422 50.77719915 -0.09974975 57.77036726 -0.12876248 C63.85188062 -0.15310554 69.93331385 -0.16071213 76.0148735 -0.16243744 C78.58951255 -0.16545287 81.164151 -0.17344366 83.73875809 -0.18662262 C87.35202893 -0.20379557 90.96482922 -0.20177505 94.578125 -0.1953125 C95.62894257 -0.20452728 96.67976013 -0.21374207 97.76242065 -0.22323608 C114.43468933 -0.13045018 126.96631391 5.49093431 138.67724609 17.16113281 C139.24314453 17.70382813 139.80904297 18.24652344 140.39208984 18.80566406 C151.09473542 30.01931129 154.3223273 44.68386311 153.98974609 59.61035156 C153.30621049 73.26682327 146.88875546 84.86069157 137.08740234 94.12207031 C127.08397945 102.58525792 115.96533374 105.86824481 102.91552734 105.50878906 C90.14590483 104.13786457 81.58377331 97.97076379 73.43896484 88.46582031 C69.68875861 83.55978555 67.88727198 79.21126222 66.67724609 73.16113281 C54.46724609 73.16113281 42.25724609 73.16113281 29.67724609 73.16113281 C29.01724609 76.13113281 28.35724609 79.10113281 27.67724609 82.16113281 C23.27211733 91.65021346 14.44626224 99.52028178 4.67724609 103.16113281 C-8.4373328 107.48067901 -20.79091109 105.55821223 -32.88525391 99.53613281 C-44.28423918 92.97649107 -52.11013713 82.54898314 -56.26025391 70.09863281 C-59.6594142 55.41850929 -57.95176552 40.13927767 -50.63525391 26.97363281 C-42.19321156 13.9728876 -30.29501042 4.00551769 -14.8812561 0.62579346 C-9.91442548 -0.02276332 -5.00408125 0.00526251 0 0 Z " fill="#017FCD" transform="translate(589.32275390625,206.8388671875)"/>
<path d="M0 0 C0.67029802 -0.00709439 1.34059605 -0.01418877 2.03120613 -0.02149814 C4.27643365 -0.03909547 6.5199338 -0.02096731 8.76513672 -0.00291443 C10.37498768 -0.00805266 11.98483302 -0.01533321 13.59466553 -0.02459717 C17.96666999 -0.04313198 22.33806564 -0.03015976 26.71004486 -0.01050687 C31.28326644 0.00586392 35.85644898 -0.00293107 40.4296875 -0.00802612 C48.10996236 -0.01254885 55.78999381 0.00333377 63.47021484 0.03126526 C72.35218483 0.06331802 81.23371578 0.06330205 90.11571693 0.04605049 C98.65660742 0.03019188 107.19733679 0.03691465 115.73822021 0.0539875 C119.37453494 0.06086376 123.01072075 0.05981968 126.64703369 0.05244255 C130.92846106 0.04478665 135.20938824 0.05688274 139.49073029 0.08429146 C141.06289434 0.09118374 142.63510503 0.09126421 144.20726776 0.08407593 C146.35195459 0.07539919 148.49509137 0.09130381 150.63964844 0.11352539 C151.84015839 0.11633231 153.04066833 0.11913923 154.27755737 0.12203121 C157.95840357 0.73443288 159.15068965 1.6279188 161.31982422 4.62818909 C161.81201553 6.65088272 161.81201553 6.65088272 161.80084229 8.82966614 C161.80635227 9.65803608 161.81186226 10.48640602 161.81753922 11.33987808 C161.79595057 12.69543871 161.79595057 12.69543871 161.77392578 14.0783844 C161.77440792 15.05026073 161.77489006 16.02213707 161.77538681 17.0234642 C161.77240218 20.16812057 161.74194688 23.31182748 161.71044922 26.45631409 C161.70456778 28.39820397 161.70048725 30.34010018 161.69824219 32.28199768 C161.67727418 39.48082488 161.62142924 46.67951632 161.56982422 53.87818909 C161.48732422 69.96568909 161.40482422 86.05318909 161.31982422 102.62818909 C104.55982422 102.62818909 47.79982422 102.62818909 -10.68017578 102.62818909 C-10.76267578 86.72631409 -10.84517578 70.82443909 -10.93017578 54.44068909 C-10.9665918 49.42212708 -11.00300781 44.40356506 -11.04052734 39.23292542 C-11.05859375 33.09828186 -11.05859375 33.09828186 -11.06195068 30.22515869 C-11.06808765 28.22117561 -11.08214501 26.21720719 -11.10247803 24.21331787 C-11.13175934 21.1753224 -11.13579987 18.13822837 -11.13427734 15.10011292 C-11.14866978 14.2093723 -11.16306221 13.31863169 -11.17789078 12.40089893 C-11.17238079 11.57954803 -11.1668708 10.75819712 -11.16119385 9.91195679 C-11.16488102 9.2012544 -11.16856819 8.49055201 -11.1723671 7.75831318 C-9.70206124 1.39506818 -6.055388 0.00295735 0 0 Z " fill="#FBFCFD" transform="translate(333.68017578125,212.37181091308594)"/>
<path d="M0 0 C1.29964691 -0.0071553 2.59929382 -0.01431061 3.93832397 -0.02168274 C5.38191199 -0.02452297 6.82550027 -0.02723471 8.26908875 -0.02983093 C9.7868719 -0.03609626 11.30465353 -0.04274312 12.82243347 -0.04974365 C17.80944248 -0.07077618 22.79645177 -0.08114447 27.78349304 -0.09111023 C29.50047001 -0.09515792 31.21744681 -0.09927485 32.93442345 -0.10346031 C41.0000594 -0.12250928 49.0656862 -0.13674159 57.13134032 -0.14507228 C66.4418309 -0.15484757 75.75208391 -0.18117583 85.06249076 -0.22157317 C92.25919049 -0.25172791 99.45582209 -0.2665405 106.65258378 -0.26985329 C110.9508828 -0.2722043 115.24892794 -0.28117133 119.54715919 -0.30631447 C123.59130401 -0.32958945 127.63502768 -0.33383092 131.67922211 -0.32355309 C133.16188393 -0.32305749 134.64456645 -0.32938508 136.12716484 -0.34310913 C138.15452357 -0.36082302 140.18206511 -0.35133825 142.20947266 -0.34057617 C143.34306874 -0.34296453 144.47666483 -0.34535288 145.64461231 -0.34781361 C150.78150667 0.45923399 153.86099722 3.03045577 157.13786316 6.94746399 C159.08093659 10.69879645 159.3020504 13.1320508 159.31278992 17.34248352 C159.31979919 18.035979 159.32680847 18.72947449 159.33403015 19.44398499 C159.35153522 21.72046278 159.3400155 23.99568213 159.32646179 26.27217102 C159.32915889 27.86348202 159.33304313 29.45479142 159.33805847 31.0460968 C159.34394333 34.37487031 159.33542371 37.70321334 159.31669617 41.03193665 C159.2939067 45.28909066 159.3070353 49.54523586 159.33098602 53.80235291 C159.34547173 57.08645669 159.34082543 60.37032309 159.33047485 63.6544342 C159.3278152 65.2236493 159.33105046 66.79288627 159.34039307 68.36207581 C159.35060515 70.55924691 159.33499589 72.75480679 159.31278992 74.95185852 C159.30960754 76.19950989 159.30642517 77.44716125 159.30314636 78.73262024 C158.58864131 83.53582509 156.37221445 86.57016836 152.98271179 89.95967102 C149.99496336 91.5815916 147.14991678 91.82460323 143.79521179 92.14717102 C143.83001648 92.83424133 143.86482117 93.52131165 143.90068054 94.22920227 C143.92775085 95.13025696 143.95482117 96.03131165 143.98271179 96.95967102 C144.01751648 97.85299133 144.05232117 98.74631165 144.08818054 99.66670227 C143.79521179 102.14717102 143.79521179 102.14717102 142.74198914 103.77729797 C139.80315046 105.84524678 136.81864573 105.57566367 133.35380554 105.54560852 C132.63032425 105.5484787 131.90684296 105.55134888 131.16143799 105.55430603 C129.63416256 105.5563453 128.10686093 105.55082495 126.57963562 105.5382843 C124.23749204 105.52220384 121.89706788 105.53814795 119.55497742 105.55732727 C118.07124964 105.55534527 116.58752294 105.55150248 115.10380554 105.54560852 C114.40170456 105.55168121 113.69960358 105.55775391 112.97622681 105.56401062 C111.00395203 105.53535461 111.00395203 105.53535461 107.79521179 105.14717102 C105.79521179 102.14717102 105.79521179 102.14717102 105.79521179 92.14717102 C83.02521179 92.14717102 60.25521179 92.14717102 36.79521179 92.14717102 C36.79521179 95.44717102 36.79521179 98.74717102 36.79521179 102.14717102 C36.13521179 103.13717102 35.47521179 104.12717102 34.79521179 105.14717102 C32.20579977 105.45171759 29.85920101 105.56734459 27.26786804 105.54560852 C26.52314743 105.5484787 25.77842682 105.55134888 25.01113892 105.55430603 C23.43500509 105.55634874 21.85884604 105.55080438 20.28276062 105.5382843 C17.87031744 105.52225478 15.45955528 105.53811289 13.04716492 105.55732727 C11.51656226 105.55534443 9.98596065 105.55149991 8.45536804 105.54560852 C7.73341751 105.55168121 7.01146698 105.55775391 6.26763916 105.56401062 C3.32178369 105.52268057 1.29122624 105.49376343 -1.16523743 103.77729797 C-2.64805336 101.45208379 -2.49856704 99.68749437 -2.39228821 96.95967102 C-2.3652179 96.05861633 -2.33814758 95.15756165 -2.31025696 94.22920227 C-2.27545227 93.54213196 -2.24064758 92.85506165 -2.20478821 92.14717102 C-3.07103821 92.08529602 -3.93728821 92.02342102 -4.82978821 91.95967102 C-9.48381895 90.83925621 -12.68727354 88.42591166 -15.35850525 84.41471863 C-16.52942301 81.27733799 -16.47493726 78.52582232 -16.49531555 75.1789093 C-16.50203278 74.48570587 -16.50875 73.79250244 -16.51567078 73.07829285 C-16.53463699 70.79128308 -16.53857425 68.504567 -16.54072571 66.21748352 C-16.5471547 64.62331523 -16.55388314 63.02914812 -16.56089783 61.4349823 C-16.5728672 58.09438848 -16.57657902 54.75389805 -16.57539368 51.4132843 C-16.57519053 47.14045301 -16.60248939 42.86828714 -16.6369381 38.59561348 C-16.6592168 35.3029732 -16.66323093 32.01049281 -16.66217422 28.71778488 C-16.66452885 27.14296552 -16.67334465 25.56814166 -16.68883896 23.99339676 C-16.70851942 21.78653627 -16.70265441 19.5811072 -16.69062805 17.3742218 C-16.69347809 16.12053802 -16.69632812 14.86685425 -16.69926453 13.57518005 C-15.96318436 8.47222697 -13.17192889 4.42437419 -9.20478821 1.14717102 C-5.91060036 0.0491084 -3.46950543 0.01309256 0 0 Z " fill="#017FCD" transform="translate(291.2047882080078,411.8528289794922)"/>
<path d="M0 0 C1.33875687 0.00303635 1.33875687 0.00303635 2.70455933 0.00613403 C4.10688309 0.00350555 4.10688309 0.00350555 5.53753662 0.00082397 C8.6440107 -0.00359617 11.75042837 -0.00065598 14.85690308 0.00271606 C17.00542207 0.00204307 19.15394099 0.00107309 21.30245972 -0.00018311 C25.81182579 -0.0016603 30.3211721 0.00049517 34.83053589 0.00515747 C40.62488885 0.01085477 46.41919549 0.00757588 52.21354675 0.00158501 C56.65203198 -0.00202002 61.09050614 -0.00088229 65.5289917 0.0017128 C67.66613775 0.00238223 69.80328479 0.00155309 71.94042969 -0.00076675 C74.92172934 -0.00329233 77.90295288 0.00054597 80.88424683 0.00613403 C81.7767514 0.0041098 82.66925598 0.00208557 83.58880615 0 C89.68014075 0.02126624 89.68014075 0.02126624 90.79440308 1.13552856 C90.89290295 2.8921488 90.92072385 4.65276033 90.92138672 6.41213989 C90.92561646 8.12852158 90.92561646 8.12852158 90.92993164 9.87957764 C90.92689529 11.77937881 90.92689529 11.77937881 90.92379761 13.71755981 C90.92515164 15.05596972 90.92693158 16.39437926 90.92910767 17.73278809 C90.93368177 21.37731711 90.93189254 25.02181796 90.92872858 28.6663475 C90.92620486 32.47223743 90.92854255 36.27812487 90.93011475 40.08401489 C90.93193641 46.47651607 90.92953023 52.8690057 90.92477417 59.26150513 C90.91933155 66.66247259 90.92109421 74.06341251 90.92660058 81.46437931 C90.93113181 87.80746478 90.93178221 94.15054194 90.92916191 100.4936285 C90.92759919 104.28699635 90.92740523 108.08035123 90.93069839 111.87371826 C90.93357726 115.43919801 90.93160115 119.00464208 90.92580414 122.57011795 C90.92384103 124.51057129 90.92683032 126.45102764 90.92993164 128.39147949 C90.92711182 129.53573395 90.92429199 130.6799884 90.92138672 131.85891724 C90.92082118 133.35995247 90.92082118 133.35995247 90.92024422 134.89131165 C90.79440308 137.13552856 90.79440308 137.13552856 89.79440308 138.13552856 C86.81678938 138.23614127 83.8623314 138.27167749 80.88424683 138.2649231 C79.48192307 138.26755157 79.48192307 138.26755157 78.05126953 138.27023315 C74.94479545 138.2746533 71.83837779 138.27171311 68.73190308 138.26834106 C66.58338408 138.26901406 64.43486517 138.26998404 62.28634644 138.27124023 C57.77698036 138.27271743 53.26763405 138.27056196 48.75827026 138.26589966 C42.9639173 138.26020236 37.16961066 138.26348125 31.3752594 138.26947212 C26.93677417 138.27307715 22.49830001 138.27193942 18.05981445 138.26934433 C15.9226684 138.2686749 13.78552136 138.26950404 11.64837646 138.27182388 C8.66707681 138.27434946 5.68585328 138.27051116 2.70455933 138.2649231 C1.36580246 138.26795944 1.36580246 138.26795944 0 138.27105713 C-6.0913346 138.24979089 -6.0913346 138.24979089 -7.20559692 137.13552856 C-7.3040968 135.37890833 -7.33191769 133.6182968 -7.33258057 131.85891724 C-7.33540039 130.71466278 -7.33822021 129.57040833 -7.34112549 128.39147949 C-7.33910126 127.12494537 -7.33707703 125.85841125 -7.33499146 124.55349731 C-7.33634549 123.21508741 -7.33812543 121.87667787 -7.34030151 120.53826904 C-7.34487562 116.89374002 -7.34308639 113.24923917 -7.33992243 109.60470963 C-7.33739871 105.7988197 -7.3397364 101.99293226 -7.34130859 98.18704224 C-7.34313025 91.79454106 -7.34072407 85.40205143 -7.33596802 79.009552 C-7.3305254 71.60858454 -7.33228806 64.20764462 -7.33779442 56.80667782 C-7.34232565 50.46359235 -7.34297605 44.12051519 -7.34035575 37.77742863 C-7.33879303 33.98406078 -7.33859907 30.19070589 -7.34189224 26.39733887 C-7.3447711 22.83185912 -7.342795 19.26641505 -7.33699799 15.70093918 C-7.33503488 13.76048584 -7.33802417 11.82002949 -7.34112549 9.87957764 C-7.33830566 8.73532318 -7.33548584 7.59106873 -7.33258057 6.41213989 C-7.33220354 5.41144974 -7.33182652 4.41075958 -7.33143806 3.37974548 C-7.07148039 -1.25626954 -3.91281764 0.01366054 0 0 Z " fill="#FCFDFD" transform="translate(613.2055969238281,351.8644714355469)"/>
<path d="M0 0 C0.93236984 -0.0065712 1.86473969 -0.0131424 2.82536316 -0.01991272 C5.90408415 -0.03958718 8.9827565 -0.05129493 12.06152344 -0.0612793 C13.11586327 -0.06535482 14.17020309 -0.06943035 15.25649261 -0.07362938 C20.83652041 -0.09446458 26.41652379 -0.10877767 31.99658203 -0.11816406 C37.74759207 -0.12922662 43.49821502 -0.16363242 49.24908829 -0.20333576 C53.68274639 -0.22952773 58.11631254 -0.23785818 62.5500412 -0.24144554 C64.66943732 -0.24630432 66.78882952 -0.25789797 68.90814972 -0.27648354 C71.88048192 -0.30093089 74.851816 -0.29989966 77.82421875 -0.29296875 C78.69102768 -0.30577881 79.55783661 -0.31858887 80.45091248 -0.33178711 C88.78379435 -0.26133702 95.9958852 2.66782116 102.11385536 8.38368988 C108.90446235 16.20471788 109.3952707 24.49053693 109.31787109 34.46411133 C109.3246603 35.87792583 109.33357071 37.29173147 109.34442139 38.70552063 C109.36706719 42.51768564 109.35844027 46.3291683 109.34252596 50.14134407 C109.3297899 54.14718471 109.34162832 58.15297032 109.34945679 62.15881348 C109.35853108 68.88356928 109.34662409 75.60804975 109.32275391 82.33276367 C109.29554668 90.08670606 109.30436244 97.8399909 109.33188593 105.59391737 C109.35463965 112.27368242 109.35774665 118.95325054 109.34469259 125.63304186 C109.3369323 129.6127858 109.33576128 133.59222155 109.35237503 137.57194519 C109.36691238 141.31515683 109.35663179 145.05752798 109.32790375 148.80064964 C109.31823352 150.81442004 109.33291375 152.82826226 109.34854126 154.84199524 C109.24219905 164.03888695 107.41752732 170.74620606 101.42480469 177.83325195 C100.70164062 178.44168945 99.97847656 179.05012695 99.23339844 179.67700195 C98.15251953 180.6205957 98.15251953 180.6205957 97.04980469 181.58325195 C91.28072937 185.44824822 85.55799522 185.47420895 78.86108398 185.4675293 C77.88955383 185.47424652 76.91802368 185.48096375 75.91705322 185.48788452 C72.71385546 185.5068405 69.51086751 185.51078757 66.30761719 185.51293945 C64.07330744 185.51936918 61.83899854 185.52609767 59.60469055 185.53311157 C54.92337086 185.54507844 50.24212492 185.54879301 45.56079102 185.54760742 C39.57549881 185.5474043 33.59068179 185.57470224 27.60550213 185.60915184 C22.99082791 185.63143891 18.3762677 185.6354444 13.76154518 185.63438797 C11.55563533 185.63674136 9.34972222 185.64555001 7.14386559 185.6610527 C4.05187513 185.68074812 0.96090497 185.67486018 -2.13110352 185.6628418 C-3.03374435 185.67408081 -3.93638519 185.68531982 -4.86637878 185.69689941 C-12.15995025 185.6252141 -18.1380034 183.76050712 -23.85253906 179.1340332 C-24.46355469 178.42633789 -25.07457031 177.71864258 -25.70410156 176.98950195 C-26.33058594 176.29469727 -26.95707031 175.59989258 -27.60253906 174.8840332 C-32.73132136 166.84275236 -32.76585086 158.56939159 -32.7331543 149.26293945 C-32.73886685 147.87721204 -32.74583451 146.49148933 -32.75395203 145.10577393 C-32.77179905 141.36608377 -32.77073138 137.62662933 -32.76500964 133.88690948 C-32.7619061 130.75577566 -32.76802299 127.62468635 -32.77404839 124.49355888 C-32.78806363 117.10349656 -32.78655684 109.71354993 -32.77514648 102.32348633 C-32.76366235 94.71789414 -32.77775256 87.11265446 -32.80454296 79.50710869 C-32.82674147 72.95819567 -32.83332819 66.40939297 -32.82746655 59.86044502 C-32.82410637 55.95731276 -32.82644939 52.05440651 -32.84371758 48.15130615 C-32.85925171 44.48046921 -32.85516047 40.8101525 -32.83641243 37.13933563 C-32.83100543 35.1623197 -32.84519043 33.18528004 -32.86010742 31.20831299 C-32.77931284 21.39729426 -30.74932663 14.00593741 -24.03613281 6.6809082 C-17.00139685 0.48325753 -8.94623909 0.02749505 0 0 Z M-10.32910156 21.17700195 C-10.42760144 22.93362219 -10.45542233 24.69423372 -10.45608521 26.45361328 C-10.45890503 27.59786774 -10.46172485 28.74212219 -10.46463013 29.92105103 C-10.4626059 31.18758514 -10.46058167 32.45411926 -10.45849609 33.7590332 C-10.45985013 35.09744311 -10.46163007 36.43585265 -10.46380615 37.77426147 C-10.46838025 41.4187905 -10.46659102 45.06329135 -10.46342707 48.70782089 C-10.46090335 52.51371082 -10.46324104 56.31959826 -10.46481323 60.12548828 C-10.46663489 66.51798945 -10.46422871 72.91047909 -10.45947266 79.30297852 C-10.45403004 86.70394598 -10.4557927 94.1048859 -10.46129906 101.5058527 C-10.46583029 107.84893817 -10.46648069 114.19201533 -10.46386039 120.53510189 C-10.46229767 124.32846974 -10.46210371 128.12182462 -10.46539688 131.91519165 C-10.46827574 135.48067139 -10.46629963 139.04611547 -10.46050262 142.61159134 C-10.45853952 144.55204468 -10.46152881 146.49250102 -10.46463013 148.43295288 C-10.4618103 149.57720734 -10.45899048 150.72146179 -10.45608521 151.90039062 C-10.45570818 152.90108078 -10.45533115 153.90177094 -10.4549427 154.93278503 C-10.58080461 157.14743556 -10.58080461 157.14743556 -9.32910156 158.17700195 C-6.35148787 158.27761466 -3.39702989 158.31315088 -0.41894531 158.30639648 C0.51593719 158.3081488 1.4508197 158.30990112 2.41403198 158.31170654 C5.52050606 158.31612669 8.62692373 158.3131865 11.73339844 158.30981445 C13.88191743 158.31048745 16.03043635 158.31145743 18.17895508 158.31271362 C22.68832115 158.31419082 27.19766746 158.31203535 31.70703125 158.30737305 C37.50138421 158.30167575 43.29569086 158.30495464 49.09004211 158.31094551 C53.52852734 158.31455054 57.96700151 158.3134128 62.40548706 158.31081772 C64.54263311 158.31014829 66.67978015 158.31097743 68.81692505 158.31329727 C71.7982247 158.31582285 74.77944824 158.31198454 77.76074219 158.30639648 C79.09949905 158.30943283 79.09949905 158.30943283 80.46530151 158.31253052 C84.38185007 158.68911804 84.38185007 158.68911804 87.67089844 157.17700195 C87.76939832 155.42038172 87.79721921 153.65977019 87.79788208 151.90039062 C87.8007019 150.75613617 87.80352173 149.61188171 87.806427 148.43295288 C87.80440277 147.16641876 87.80237854 145.89988464 87.80029297 144.5949707 C87.801647 143.25656079 87.80342694 141.91815126 87.80560303 140.57974243 C87.81017713 136.9352134 87.8083879 133.29071256 87.80522394 129.64618301 C87.80270022 125.84029309 87.80503791 122.03440564 87.80661011 118.22851562 C87.80843177 111.83601445 87.80602559 105.44352481 87.80126953 99.05102539 C87.79582692 91.65005793 87.79758958 84.249118 87.80309594 76.84815121 C87.80762717 70.50506574 87.80827757 64.16198858 87.80565727 57.81890202 C87.80409455 54.02553417 87.80390059 50.23217928 87.80719376 46.43881226 C87.81007262 42.87333251 87.80809651 39.30788844 87.8022995 35.74241257 C87.8003364 33.80195923 87.80332569 31.86150288 87.806427 29.92105103 C87.80219727 28.20466934 87.80219727 28.20466934 87.79788208 26.45361328 C87.79750505 25.45292313 87.79712803 24.45223297 87.79673958 23.42121887 C87.92260149 21.20656835 87.92260149 21.20656835 86.67089844 20.17700195 C83.69328474 20.07638925 80.73882676 20.04085302 77.76074219 20.04760742 C76.82585968 20.0458551 75.89097717 20.04410278 74.92776489 20.04229736 C71.82129081 20.03787721 68.71487315 20.04081741 65.60839844 20.04418945 C63.45987945 20.04351646 61.31136053 20.04254648 59.1628418 20.04129028 C54.65347572 20.03981309 50.14412941 20.04196856 45.63476562 20.04663086 C39.84041267 20.05232815 34.04610602 20.04904927 28.25175476 20.0430584 C23.81326953 20.03945336 19.37479537 20.0405911 14.93630981 20.04318619 C12.79916376 20.04385562 10.66201672 20.04302648 8.52487183 20.04070663 C5.54357217 20.03818106 2.56234864 20.04201936 -0.41894531 20.04760742 C-1.31144989 20.04558319 -2.20395447 20.04355896 -3.12350464 20.04147339 C-7.04005319 19.66488586 -7.04005319 19.66488586 -10.32910156 21.17700195 Z " fill="#017ECD" transform="translate(616.3291015625,331.822998046875)"/>
<path d="M0 0 C1.30170135 -0.0127597 2.60340271 -0.02551941 3.94454956 -0.03866577 C5.36293387 -0.04172348 6.78132018 -0.04395121 8.19970703 -0.04541016 C9.65935395 -0.05184012 11.11899957 -0.05856863 12.5786438 -0.06558228 C15.63676948 -0.07754845 18.69478225 -0.0812638 21.75292969 -0.08007812 C25.6625816 -0.07987501 29.57150603 -0.10717188 33.48098564 -0.14162254 C36.49568984 -0.16391239 39.51021956 -0.16791504 42.52499771 -0.16685867 C43.96584708 -0.1692117 45.40670147 -0.17801851 46.84746933 -0.19352341 C48.86696691 -0.21322107 50.8866787 -0.20481318 52.90625 -0.1953125 C54.05334442 -0.19816254 55.20043884 -0.20101257 56.3822937 -0.20394897 C61.2393002 0.5465214 64.16468091 2.73223235 67.43226624 6.32351685 C69.26760106 11.05765472 69.00729749 15.73008213 68.98657227 20.76269531 C68.99343552 21.92260986 69.00029877 23.08252441 69.00737 24.27758789 C69.02567447 28.11275466 69.02179478 31.94751375 69.01611328 35.78271484 C69.0195209 37.77522127 69.02293614 39.7677279 69.02746636 41.76023209 C69.04150435 48.02444446 69.0399571 54.28852044 69.02856445 60.55273438 C69.01709039 67.00405523 69.03114814 73.45496002 69.05796093 79.90622604 C69.08015339 85.45461535 69.08674718 91.00287441 69.08088452 96.55130494 C69.07752133 99.86089774 69.08160466 103.1701658 69.09713554 106.47973251 C69.11202486 110.17332573 69.10138164 113.86600553 69.08422852 117.55957031 C69.09389648 118.64863678 69.10356445 119.73770325 69.11352539 120.85977173 C69.05201519 127.19018888 68.48332479 131.20615508 64.58251953 136.29052734 C61.34431067 138.78412563 58.06837639 138.55487217 54.07324219 138.58105469 C53.42880661 138.58777191 52.78437103 138.59448914 52.1204071 138.60140991 C49.99571972 138.62036553 47.87134865 138.62431283 45.74658203 138.62646484 C44.26451489 138.63289463 42.78244901 138.63962313 41.30038452 138.64663696 C38.19518085 138.65860371 35.09008838 138.66231843 31.98486328 138.66113281 C28.0146818 138.66092969 24.04521666 138.68822692 20.07520485 138.72267723 C17.014178 138.74496508 13.95332302 138.74896979 10.89222336 138.74791336 C9.42904569 138.75026668 7.96586309 138.7590751 6.50276566 138.77457809 C4.45153562 138.79427752 2.40184318 138.7883868 0.35058594 138.77636719 C-1.39670303 138.78064224 -1.39670303 138.78064224 -3.17929077 138.78500366 C-7.14973426 138.17871111 -9.29896128 136.78019324 -12.41748047 134.29052734 C-14.59648727 131.02201715 -14.67075433 130.08577242 -14.68490601 126.30058289 C-14.69770096 124.75499191 -14.69770096 124.75499191 -14.71075439 123.17817688 C-14.70984802 122.04824814 -14.70894165 120.9183194 -14.70800781 119.75415039 C-14.71472504 118.56366089 -14.72144226 117.37317139 -14.72836304 116.14660645 C-14.74412302 112.87991683 -14.75071914 109.61337968 -14.75199461 106.34665656 C-14.75341619 104.30480659 -14.75768595 102.26298326 -14.76298904 100.22113991 C-14.78149643 93.09491917 -14.78965901 85.96877327 -14.78808594 78.8425293 C-14.78688519 72.20493507 -14.8079722 65.56766637 -14.83957326 58.9301545 C-14.86575083 53.22812107 -14.87645258 47.52619383 -14.87517512 41.82410079 C-14.8746658 38.42005431 -14.88033158 35.01629693 -14.90153122 31.61231041 C-14.92110955 27.81296113 -14.91538391 24.01445045 -14.90332031 20.21508789 C-14.91455933 19.09123184 -14.92579834 17.96737579 -14.93737793 16.8094635 C-14.88801382 10.69643252 -14.67038365 6.85014967 -10.41748047 2.29052734 C-7.13410311 -0.11901695 -3.99326215 0.02657611 0 0 Z " fill="#047FCD" transform="translate(492.41748046875,436.70947265625)"/>
<path d="M0 0 C3.18647786 0.46295042 6.36405388 0.94717181 9.5390625 1.484375 C12.84311356 2.05998709 12.84311356 2.05998709 15.5859375 2.015625 C18.33313863 2.15057523 19.69555908 2.45929141 22 4 C24.83335747 8.3284295 26.86263081 12.91350624 28.93896484 17.64111328 C37.74030712 37.20820234 49.82740322 58.53691586 65.5625 73.375 C69.27124106 77.52672957 68.52285026 82.85130379 68.6796875 88.13671875 C69.34067886 96.10891948 72.75091757 103.70074601 78.26171875 109.5390625 C81.51812328 112.27590586 85.15545431 114.21479357 89 116 C89.7528125 116.36996094 90.505625 116.73992187 91.28125 117.12109375 C94.84598474 118.27348644 98.23331694 118.29127223 101.9375 118.25 C102.62779297 118.25773438 103.31808594 118.26546875 104.02929688 118.2734375 C107.41001141 118.26061962 109.93627988 118.02589134 113.0859375 116.74609375 C116 116 116 116 119.19921875 117.45703125 C120.37279016 118.22593453 121.53495984 119.01241669 122.6875 119.8125 C171.3667817 151.11110555 232.52143283 157.41370166 288.2265625 145.34375 C295.65833399 143.65525924 302.8229735 141.56842397 310 139 C311.17344971 138.59273682 311.17344971 138.59273682 312.37060547 138.17724609 C343.50146299 127.30396105 371.23379938 109.80562666 395 87 C395.95003906 86.09121094 396.90007812 85.18242188 397.87890625 84.24609375 C404.07912523 78.18384905 409.70255714 71.86239203 415 65 C415.41717285 64.46455566 415.8343457 63.92911133 416.26416016 63.37744141 C425.86746943 50.97746629 434.7635807 37.76391621 440.93359375 23.3046875 C448.7297751 5.12958852 448.7297751 5.12958852 453.5859375 2.5625 C457.18314993 1.51938509 460.265713 1.09041857 464 1 C465.6267243 0.76147737 467.25217988 0.51377995 468.875 0.25 C470.421875 0.12625 470.421875 0.12625 472 0 C470.77888603 6.31127053 469.03010227 12.1669887 466.625 18.125 C466.28194824 18.97537842 465.93889648 19.82575684 465.58544922 20.7019043 C458.81711551 37.02196387 450.42744126 52.72319568 440 67 C439.58508301 67.56895996 439.17016602 68.13791992 438.74267578 68.72412109 C433.85542704 75.362587 428.66960496 81.66730722 423.08203125 87.734375 C421.1755956 89.80892036 419.3323439 91.92265931 417.5 94.0625 C410.34625512 102.23352053 402.52213531 109.28455737 394 116 C393.01257813 116.79277344 392.02515625 117.58554687 391.0078125 118.40234375 C360.01939454 142.86078336 323.69253978 159.93645752 285.125 168.3125 C284.44977295 168.45993652 283.7745459 168.60737305 283.07885742 168.75927734 C268.08585414 171.77449173 253.12131268 172.37509601 237.875 172.3125 C236.45468475 172.30926727 236.45468475 172.30926727 235.00567627 172.30596924 C220.82255942 172.25421805 206.9360033 171.87430068 193 169 C192.00484375 168.79600586 191.0096875 168.59201172 189.984375 168.38183594 C141.33343001 158.09144209 97.85167776 135.4135974 62 101 C61.48695313 100.51418457 60.97390625 100.02836914 60.4453125 99.52783203 C52.46061479 91.94591571 45.56411555 83.8319857 39 75 C38.58008789 74.44086914 38.16017578 73.88173828 37.72753906 73.30566406 C22.99117275 53.59965666 11.98281965 32.49665479 2.78515625 9.73828125 C2.30381226 8.54779175 2.30381226 8.54779175 1.81274414 7.33325195 C0.9671617 4.90572675 0.44572248 2.5289358 0 0 Z " fill="#027ECD" transform="translate(271,531)"/>
<path d="M0 0 C1.13501953 0.84691406 1.13501953 0.84691406 2.29296875 1.7109375 C3.36546875 2.4740625 4.43796875 3.2371875 5.54296875 4.0234375 C14.16425406 12.44878451 21.0906637 24.55214293 22.29296875 36.7109375 C22.20123764 38.89899425 22.0962319 41.08652053 21.98046875 43.2734375 C21.87852499 48.13842037 22.27168588 50.49410031 25.60546875 54.0859375 C26.24226563 54.70984375 26.8790625 55.33375 27.53515625 55.9765625 C32.21074002 60.58980515 32.5145513 65.29734175 32.73046875 71.5859375 C32.51821647 79.92568335 30.62954149 85.49443753 24.91796875 91.5859375 C18.98397581 97.06346945 13.11364766 98.67717781 5.23046875 99.0234375 C3.97556641 99.07951172 3.97556641 99.07951172 2.6953125 99.13671875 C-0.73645019 98.52848764 -1.64598574 97.53560105 -3.70703125 94.7109375 C-4.28992286 91.50450523 -4.21963273 88.34060155 -4.16796875 85.08984375 C-4.16705231 84.15293198 -4.16613586 83.2160202 -4.16519165 82.25071716 C-4.15915544 80.27117848 -4.14340882 78.29164894 -4.11865234 76.31225586 C-4.0822056 73.28790481 -4.07763268 70.26478187 -4.078125 67.24023438 C-4.06829105 65.31509362 -4.05663284 63.38996113 -4.04296875 61.46484375 C-4.0407431 60.56262589 -4.03851746 59.66040802 -4.03622437 58.73085022 C-3.91264347 50.52159653 -3.91264347 50.52159653 -1.70703125 46.7109375 C1.93714615 44.2814859 4.00538147 44.54914175 8.29296875 44.7109375 C7.20549475 31.86749457 3.93261516 22.28615142 -5.62890625 13.36328125 C-8.75625606 10.87668544 -11.98648985 9.13973857 -15.70703125 7.7109375 C-16.60679687 7.35515625 -17.5065625 6.999375 -18.43359375 6.6328125 C-27.24096363 4.15245535 -38.24799257 4.47441997 -46.5546875 8.421875 C-49.59315213 10.24164511 -52.38621682 12.2814108 -55.11328125 14.5390625 C-56.70703125 15.7109375 -56.70703125 15.7109375 -58.70703125 15.7109375 C-58.98546875 16.29101562 -59.26390625 16.87109375 -59.55078125 17.46875 C-60.65586497 19.6117164 -61.88176588 21.57379679 -63.20703125 23.5859375 C-67.65583316 30.73018997 -68.1980951 37.43402846 -68.70703125 45.7109375 C-67.44890625 45.6284375 -66.19078125 45.5459375 -64.89453125 45.4609375 C-62.75 45.3203125 -62.75 45.3203125 -60.70703125 45.7109375 C-58.65787198 47.51254733 -57.80158517 49.04148111 -57.41938782 51.74749756 C-57.29208082 54.36465834 -57.26515967 56.96565576 -57.2734375 59.5859375 C-57.26819565 60.54741699 -57.2629538 61.50889648 -57.2575531 62.49951172 C-57.25113593 64.53026362 -57.25246595 66.56105271 -57.26098633 68.59179688 C-57.26950099 71.69989086 -57.24072288 74.80614985 -57.20898438 77.9140625 C-57.20737238 79.88802028 -57.20794985 81.86198132 -57.2109375 83.8359375 C-57.19408653 85.22981689 -57.19408653 85.22981689 -57.17689514 86.65185547 C-57.24624121 93.06608733 -57.24624121 93.06608733 -59.5534668 96.29492188 C-64.05240415 99.25307137 -69.56413369 98.30909225 -74.70703125 97.7109375 C-80.91378202 95.99136229 -85.8717915 91.79869859 -89.70703125 86.7109375 C-93.63074326 79.72001699 -95.14550917 72.96380631 -93.01171875 65.171875 C-91.44869658 60.82430913 -89.94639779 57.76151867 -86.51953125 54.6484375 C-82.63626596 50.56180919 -83.15538488 45.56040879 -83.02734375 40.25927734 C-82.63763089 27.0462922 -76.6963592 15.32707848 -67.80859375 5.65625 C-49.01188276 -11.74293601 -21.33517439 -14.9377735 0 0 Z " fill="#027FCD" transform="translate(441.70703125,543.2890625)"/>
<path d="M0 0 C21.12 0 42.24 0 64 0 C64 27.06 64 54.12 64 82 C42.88 82 21.76 82 0 82 C0 54.94 0 27.88 0 0 Z " fill="#FCFCFD" transform="translate(487,457)"/>
<path d="M0 0 C4.06066895 2.31882704 7.38422339 4.667491 10.375 8.3125 C11.3959375 9.364375 11.3959375 9.364375 12.4375 10.4375 C16.98017748 17.17824724 19.71955063 25.1765967 18.375 33.3125 C15.66979591 43.90534972 10.87585674 51.14708929 1.71875 57.0859375 C-6.70018864 61.49184872 -17.52382325 61.99208131 -26.67578125 59.47265625 C-35.44826696 55.4206683 -42.25345458 48.3794809 -45.625 39.3125 C-48.13304225 31.27998631 -47.45630345 22.17397518 -43.94921875 14.59375 C-34.97894523 -0.85946455 -16.65726017 -8.01939877 0 0 Z " fill="#F9FCFD" transform="translate(337.625,428.6875)"/>
<path d="M0 0 C12 0 12 0 14.90698242 2.24731445 C15.54998291 3.2755835 16.1929834 4.30385254 16.85546875 5.36328125 C17.21345047 5.91106735 17.57143219 6.45885345 17.94026184 7.02323914 C19.06403741 8.76379117 20.12433287 10.53443213 21.1875 12.3125 C21.93955052 13.49396958 22.69538413 14.67304004 23.45507812 15.84960938 C28.67878724 24.03636172 28.67878724 24.03636172 30 28 C30.66 28 31.32 28 32 28 C32.26683594 27.44183594 32.53367187 26.88367188 32.80859375 26.30859375 C34.63045588 22.77836253 36.78133065 19.49061794 38.9609375 16.171875 C40.40346821 13.92793834 41.73767816 11.71107624 43.0390625 9.390625 C43.75425565 8.19734516 44.47038584 7.00462638 45.1875 5.8125 C45.82042969 4.70519531 46.45335937 3.59789062 47.10546875 2.45703125 C50 0 50 0 62 0 C62 18.81 62 37.62 62 57 C58.04 57 54.08 57 50 57 C49.505 39.675 49.505 39.675 49 22 C44.52695722 28.40132971 44.52695722 28.40132971 40.05541992 34.80371094 C39.49443604 35.60583008 38.93345215 36.40794922 38.35546875 37.234375 C37.78465576 38.05131836 37.21384277 38.86826172 36.62573242 39.70996094 C35.11772668 41.83416785 33.57360707 43.92408921 32 46 C28.45072314 44.81690771 27.99471074 43.92790096 25.96875 40.88671875 C25.40542969 40.05076172 24.84210938 39.21480469 24.26171875 38.35351562 C23.38966797 37.03383789 23.38966797 37.03383789 22.5 35.6875 C21.34440796 33.96179881 20.18817965 32.23652348 19.03125 30.51171875 C18.52142578 29.74303467 18.01160156 28.97435059 17.48632812 28.18237305 C16.05304038 26.0778791 14.52772873 24.03697164 13 22 C12.67 33.55 12.34 45.1 12 57 C8.04 57 4.08 57 0 57 C0 38.19 0 19.38 0 0 Z " fill="#037DCC" transform="translate(449,752)"/>
<path d="M0 0 C4.62 -0.0825 9.24 -0.165 14 -0.25 C16.16175781 -0.30462402 16.16175781 -0.30462402 18.3671875 -0.36035156 C26.29109848 -0.42873721 32.55279511 -0.2768894 38.54272461 5.48364258 C42.8156356 10.32049106 43.30101316 14.30279437 43.2109375 20.5 C42.78477177 25.55085309 40.66920997 28.60085719 36.9375 31.8125 C34 34 34 34 32 35 C33.34515428 37.87609453 34.87971009 40.31055141 36.8203125 42.8203125 C37.35527344 43.52027344 37.89023437 44.22023438 38.44140625 44.94140625 C39.57049297 46.40581339 40.70071517 47.8693457 41.83203125 49.33203125 C42.36441406 50.02941406 42.89679687 50.72679687 43.4453125 51.4453125 C43.93531738 52.07969238 44.42532227 52.71407227 44.93017578 53.36767578 C46 55 46 55 46 57 C41.02176192 58.04652012 36.93830218 58.35137669 32 57 C27.65084454 53.13008348 24.80164377 47.85935674 22.01464844 42.80932617 C21.08921034 41.15908032 20.04950495 39.57425742 19 38 C15.535 37.505 15.535 37.505 12 37 C12 43.6 12 50.2 12 57 C8.04 57 4.08 57 0 57 C0 38.19 0 19.38 0 0 Z " fill="#027BCB" transform="translate(816,752)"/>
<path d="M0 0 C10 0 10 0 12.7421875 2.24609375 C13.44601562 3.29925781 14.14984375 4.35242188 14.875 5.4375 C15.27082275 6.00718506 15.66664551 6.57687012 16.07446289 7.16381836 C16.93827332 8.41195193 17.78775305 9.67009508 18.62451172 10.93652344 C20.62547198 13.93831899 22.73112418 16.8628816 24.82666016 19.79907227 C26.83258704 22.61764579 28.81163792 25.45450527 30.78857422 28.29345703 C31.77215175 29.67902876 32.80323432 31.03078908 33.84765625 32.37109375 C35 34 35 34 35 36 C35.66 36 36.32 36 37 36 C37 24.12 37 12.24 37 0 C40.96 0 44.92 0 49 0 C49 18.81 49 37.62 49 57 C38 57 38 57 35.16015625 54.75390625 C34.46792969 53.70074219 33.77570312 52.64757812 33.0625 51.5625 C32.67046387 50.99136475 32.27842773 50.42022949 31.87451172 49.83178711 C31.01985444 48.58276226 30.18054875 47.32312715 29.35498047 46.0546875 C27.9023854 43.85197758 26.38542818 41.70654026 24.84765625 39.5625 C20.45845021 33.44111218 16.17866408 27.26799611 12 21 C11.67 32.88 11.34 44.76 11 57 C7.37 57 3.74 57 0 57 C0 38.19 0 19.38 0 0 Z " fill="#017CCC" transform="translate(586,752)"/>
<path d="M0 0 C3.96 0 7.92 0 12 0 C14.15138882 5.10011846 16.30180803 10.20064437 18.45141602 15.30151367 C19.17935437 17.02850783 19.90753549 18.75539968 20.63598633 20.48217773 C23.0979128 26.31842165 25.55178009 32.1579941 28 38 C28.3476239 38.8275177 28.6952478 39.6550354 29.05340576 40.50762939 C30.04856012 42.87980579 31.03872244 45.25400099 32.02734375 47.62890625 C32.32862686 48.34545883 32.62990997 49.06201141 32.94032288 49.80027771 C35 54.77057104 35 54.77057104 35 57 C31.04 57 27.08 57 23 57 C19 48.25 19 48.25 19 46 C10.42 46 1.84 46 -7 46 C-7.99 48.97 -8.98 51.94 -10 55 C-10.33 55.66 -10.66 56.32 -11 57 C-14.96 57 -18.92 57 -23 57 C-20.44008773 48.77943667 -17.1112666 40.91617321 -13.75 33 C-12.87280763 30.92373251 -11.99681824 28.84696019 -11.12089539 26.77015686 C-10.54601014 25.40731489 -9.97074772 24.04463197 -9.39509583 22.68211365 C-7.13070319 17.32058372 -4.89640215 11.94714772 -2.6875 6.5625 C-2.40422852 5.87220703 -2.12095703 5.18191406 -1.82910156 4.47070312 C-1.21846758 2.980851 -0.60904611 1.49050195 0 0 Z " fill="#027BCB" transform="translate(181,752)"/>
<path d="M0 0 C2.19846521 1.4891206 4.02144032 3.10422626 5.70703125 5.15625 C3.39703125 7.79625 1.08703125 10.43625 -1.29296875 13.15625 C-3.70963542 11.94791667 -6.12630208 10.73958333 -8.54296875 9.53125 C-14.38418899 7.38946925 -18.89252851 7.28664956 -24.54296875 9.71875 C-29.68215661 12.54580816 -31.46964802 16.68628781 -33.29296875 22.15625 C-33.85785147 28.70888958 -32.72653297 33.50424656 -29.29296875 39.15625 C-25.28634643 43.16287232 -21.51233965 45.03519341 -15.85546875 45.34375 C-12.58811346 45.17178393 -9.50137821 44.78228111 -6.29296875 44.15625 C-6.29296875 40.85625 -6.29296875 37.55625 -6.29296875 34.15625 C-10.25296875 34.15625 -14.21296875 34.15625 -18.29296875 34.15625 C-18.29296875 30.52625 -18.29296875 26.89625 -18.29296875 23.15625 C-10.37296875 23.15625 -2.45296875 23.15625 5.70703125 23.15625 C5.70703125 32.06625 5.70703125 40.97625 5.70703125 50.15625 C-4.69711452 55.35832289 -13.58933574 58.17978372 -25.08203125 55.5078125 C-33.94567773 52.29714179 -40.2855577 46.65196142 -44.29296875 38.15625 C-46.81773818 30.5475911 -46.64125708 19.85146026 -43.23046875 12.59375 C-39.04016116 5.62941196 -34.06617771 0.55922977 -26.30078125 -2.18359375 C-17.66007296 -4.08006089 -7.94097594 -4.25138291 0 0 Z " fill="#057DCC" transform="translate(748.29296875,753.84375)"/>
<path d="M0 0 C3.63 0 7.26 0 11 0 C15.05604287 9.44693579 19.10785393 18.89566565 23.15174866 28.34780884 C25.02145346 32.71732935 26.89685109 37.08432665 28.77734375 41.44921875 C29.49773967 43.1326654 30.21783085 44.81624252 30.9375 46.5 C31.26041016 47.24419189 31.58332031 47.98838379 31.91601562 48.75512695 C33.15924159 51.67959756 34 53.7859328 34 57 C30.04 57 26.08 57 22 57 C18 48.25 18 48.25 18 46 C9.42 46 0.84 46 -8 46 C-8.495 48.475 -8.495 48.475 -9 51 C-9.95394836 53.02237052 -10.94535351 55.0282696 -12 57 C-15.96 57 -19.92 57 -24 57 C-22.39037904 51.87372389 -20.37003164 46.9854238 -18.26171875 42.05078125 C-17.89907425 41.19751755 -17.53642975 40.34425385 -17.16279602 39.46513367 C-16.39650808 37.66353819 -15.62908465 35.8624253 -14.8605957 34.06176758 C-13.69918581 31.33988686 -12.54168143 28.61637159 -11.38476562 25.89257812 C-7.69183067 17.21225587 -3.96084123 8.562058 0 0 Z " fill="#027BCB" transform="translate(543,752)"/>
<path d="M0 0 C3.63 0 7.26 0 11 0 C17.0461826 13.55630311 22.95803117 27.15632468 28.625 40.875 C29.0198761 41.82975723 29.0198761 41.82975723 29.42272949 42.80380249 C33.79630833 53.388925 33.79630833 53.388925 35 57 C30.71 57 26.42 57 22 57 C20.68 53.7 19.36 50.4 18 47 C9.75 47 1.5 47 -7 47 C-8.98 51.95 -8.98 51.95 -11 57 C-14.96 57 -18.92 57 -23 57 C-22.26809086 53.3404543 -21.60573778 50.74181899 -20.18994141 47.41259766 C-19.81930573 46.53463531 -19.44867004 45.65667297 -19.06680298 44.75210571 C-18.66577362 43.81555145 -18.26474426 42.87899719 -17.8515625 41.9140625 C-17.43836761 40.93891693 -17.02517273 39.96377136 -16.59945679 38.95907593 C-15.27905736 35.84581887 -13.95211634 32.73539886 -12.625 29.625 C-11.73915317 27.53924514 -10.8537318 25.45330953 -9.96875 23.3671875 C-6.65975179 15.57216173 -3.33903679 7.78220662 0 0 Z " fill="#027BCB" transform="translate(666,752)"/>
<path d="M0 0 C12.87 0 25.74 0 39 0 C39 3.3 39 6.6 39 10 C30.09 10 21.18 10 12 10 C12 14.29 12 18.58 12 23 C19.59 23 27.18 23 35 23 C35 26.3 35 29.6 35 33 C27.41 33 19.82 33 12 33 C12 37.29 12 41.58 12 46 C20.91 46 29.82 46 39 46 C39 49.63 39 53.26 39 57 C26.13 57 13.26 57 0 57 C0 38.19 0 19.38 0 0 Z " fill="#0381CD" transform="translate(766,752)"/>
<path d="M0 0 C12.54 0 25.08 0 38 0 C38 3.3 38 6.6 38 10 C29.42 10 20.84 10 12 10 C12 14.29 12 18.58 12 23 C19.59 23 27.18 23 35 23 C35 26.3 35 29.6 35 33 C27.41 33 19.82 33 12 33 C12 37.29 12 41.58 12 46 C20.91 46 29.82 46 39 46 C39 49.63 39 53.26 39 57 C26.13 57 13.26 57 0 57 C0 38.19 0 19.38 0 0 Z " fill="#037BCB" transform="translate(325,752)"/>
<path d="M0 0 C1.7578125 1.265625 1.7578125 1.265625 2.66796875 3.203125 C2.7578125 5.265625 2.7578125 5.265625 1.76171875 6.96875 C0.42708333 8.40104167 -0.90755208 9.83333333 -2.2421875 11.265625 C-7.9921875 9.390625 -7.9921875 9.390625 -10.2421875 8.265625 C-12.05167245 8.14385997 -13.86615021 8.09016708 -15.6796875 8.078125 C-16.64777344 8.06394531 -17.61585938 8.04976562 -18.61328125 8.03515625 C-21.47485477 8.07413049 -21.47485477 8.07413049 -24.2421875 10.265625 C-24.4924032 13.34928371 -24.4924032 13.34928371 -24.2421875 16.265625 C-19.03173193 19.08252754 -13.84726152 20.6783684 -8.1640625 22.1953125 C-2.46157855 23.84946815 1.99321103 26.29788616 5.1328125 31.578125 C6.59614241 37.87044363 6.27409532 42.79501189 3.1640625 48.4375 C-0.11339067 52.69818911 -4.99821292 55.30612965 -10.2421875 56.265625 C-19.63128594 57.11257976 -28.12316615 56.44218224 -36.2421875 51.265625 C-37.5703125 49.09375 -37.5703125 49.09375 -38.2421875 47.265625 C-36.5921875 44.955625 -34.9421875 42.645625 -33.2421875 40.265625 C-28.2421875 42.265625 -28.2421875 42.265625 -25.98046875 43.3203125 C-22.7299576 44.44245758 -20.05034046 44.53140961 -16.6171875 44.515625 C-15.49054688 44.52078125 -14.36390625 44.5259375 -13.203125 44.53125 C-10.05592296 44.48676983 -10.05592296 44.48676983 -7.2421875 42.265625 C-6.9919718 39.18196629 -6.9919718 39.18196629 -7.2421875 36.265625 C-11.68778134 34.19790693 -16.09105791 32.69259672 -20.8046875 31.328125 C-27.37985557 29.3427413 -32.50608001 27.36137932 -36.2421875 21.265625 C-37.90245211 16.28483117 -37.84122175 11.96288871 -36.1171875 7.078125 C-27.88349113 -5.27241955 -12.66749361 -5.26767061 0 0 Z " fill="#047CCB" transform="translate(258.2421875,753.734375)"/>
<path d="M0 0 C0.70318359 -0.00386719 1.40636719 -0.00773438 2.13085938 -0.01171875 C8.38500706 0.12586103 13.10554314 1.9328175 18.3125 5.4375 C18.3125 9.82718456 16.18444899 11.20655739 13.3125 14.4375 C12.76722656 14.2209375 12.22195313 14.004375 11.66015625 13.78125 C5.64337813 11.55967039 -0.82368751 9.69578142 -6.94921875 12.45703125 C-7.52285156 12.78058594 -8.09648437 13.10414063 -8.6875 13.4375 C-8.6875 15.4175 -8.6875 17.3975 -8.6875 19.4375 C-3.31828222 22.32672847 1.99283293 23.78745275 7.875 25.27734375 C12.86866352 26.96270519 17.27531787 29.23635642 19.75 34.0625 C21.92441043 38.93900206 21.63013714 43.33807315 20.3125 48.4375 C17.69515871 53.87351652 14.60097141 55.93243459 9.3125 58.4375 C-0.32666172 60.85534993 -9.94565388 60.25115007 -18.6875 55.4375 C-20.04089333 54.46482109 -21.3805767 53.47177717 -22.6875 52.4375 C-21.4383258 48.97824837 -20.01222205 46.29056797 -17.6875 43.4375 C-12.6875 45.4375 -12.6875 45.4375 -10.42578125 46.4921875 C-7.1752701 47.61433258 -4.49565296 47.70328461 -1.0625 47.6875 C0.06414062 47.69265625 1.19078125 47.6978125 2.3515625 47.703125 C5.49876454 47.65864483 5.49876454 47.65864483 8.3125 45.4375 C8.5627157 42.35384129 8.5627157 42.35384129 8.3125 39.4375 C2.94328222 36.54827153 -2.36783293 35.08754725 -8.25 33.59765625 C-13.4844315 31.83103562 -17.8703144 29.30946454 -20.6875 24.4375 C-22.10784962 19.43650853 -22.26413196 14.82230351 -20.0625 10.0625 C-15.47071611 2.23595426 -8.69944095 0.03292125 0 0 Z " fill="#047BCB" transform="translate(293.6875,750.5625)"/>
<path d="M0 0 C1.46965154 -0.0238763 2.9392776 -0.04937048 4.40887451 -0.07640076 C7.48598564 -0.12117333 10.56080204 -0.12998128 13.63818359 -0.11645508 C16.7823723 -0.10677414 19.91663879 -0.15524803 23.05908203 -0.26000977 C48.3344417 -1.09462265 48.3344417 -1.09462265 54.54321289 3.07647705 C58.20093387 6.92261826 62.109375 12.9042833 62.109375 18.44140625 C33.399375 18.44140625 4.689375 18.44140625 -24.890625 18.44140625 C-23.570625 15.80140625 -22.250625 13.16140625 -20.890625 10.44140625 C-20.50134827 9.55062881 -20.11207153 8.65985138 -19.71099854 7.74208069 C-15.4085494 -0.60297252 -8.54921327 0.00314199 0 0 Z " fill="#FAFCFD" transform="translate(390.890625,346.55859375)"/>
<path d="M0 0 C0.9075 0.00257813 1.815 0.00515625 2.75 0.0078125 C4.11125 0.00394531 4.11125 0.00394531 5.5 0 C7.75 0.1328125 7.75 0.1328125 8.75 1.1328125 C8.82319621 3.82936104 8.84242537 6.49972708 8.8125 9.1953125 C8.80798828 9.95392578 8.80347656 10.71253906 8.79882812 11.49414062 C8.7870068 13.37373121 8.76907078 15.25328149 8.75 17.1328125 C9.88179687 17.10960937 11.01359375 17.08640625 12.1796875 17.0625 C13.66145175 17.04374349 15.14322312 17.02554316 16.625 17.0078125 C17.37136719 16.99105469 18.11773438 16.97429687 18.88671875 16.95703125 C20.84194461 16.9394166 22.79742021 17.02961061 24.75 17.1328125 C26.75 19.1328125 26.75 19.1328125 26.98046875 21.48046875 C26.96628906 22.37636719 26.95210937 23.27226562 26.9375 24.1953125 C26.93105469 25.09378906 26.92460938 25.99226563 26.91796875 26.91796875 C26.75 29.1328125 26.75 29.1328125 25.75 30.1328125 C22.88530675 30.20611581 20.05106326 30.22499081 17.1875 30.1953125 C13.0109375 30.164375 13.0109375 30.164375 8.75 30.1328125 C8.75 36.0728125 8.75 42.0128125 8.75 48.1328125 C4.79 48.1328125 0.83 48.1328125 -3.25 48.1328125 C-3.25 42.1928125 -3.25 36.2528125 -3.25 30.1328125 C-8.79973121 30.17238731 -8.79973121 30.17238731 -14.34936523 30.22290039 C-16.31645974 30.23004341 -18.28353621 30.18313143 -20.25 30.1328125 C-21.25 29.1328125 -21.25 29.1328125 -21.34765625 26.62890625 C-21.33605469 25.61957031 -21.32445312 24.61023438 -21.3125 23.5703125 C-21.30347656 22.55839844 -21.29445313 21.54648438 -21.28515625 20.50390625 C-21.27355469 19.72144531 -21.26195312 18.93898437 -21.25 18.1328125 C-18.06175432 16.53868966 -14.62103338 17.03106515 -11.125 17.0703125 C-10.37089844 17.07482422 -9.61679687 17.07933594 -8.83984375 17.08398438 C-6.97652873 17.09577751 -5.11325445 17.11371308 -3.25 17.1328125 C-3.26160156 15.98941406 -3.27320313 14.84601563 -3.28515625 13.66796875 C-3.29453288 12.17708496 -3.30363321 10.68619941 -3.3125 9.1953125 C-3.32087891 8.44056641 -3.32925781 7.68582031 -3.33789062 6.90820312 C-3.34652441 4.98286937 -3.30224333 3.05745669 -3.25 1.1328125 C-2.25 0.1328125 -2.25 0.1328125 0 0 Z " fill="#FAFCFD" transform="translate(578.25,229.8671875)"/>
<path d="M0 0 C15.51 0 31.02 0 47 0 C47 3.3 47 6.6 47 10 C41.06 10 35.12 10 29 10 C29 25.51 29 41.02 29 57 C25.04 57 21.08 57 17 57 C17 41.49 17 25.98 17 10 C11.39 10 5.78 10 0 10 C0 6.7 0 3.4 0 0 Z " fill="#057BCB" transform="translate(372,752)"/>
<path d="M0 0 C3.99964618 2.88444085 6.32426026 6.72668703 7.86328125 11.34375 C8.45032805 17.33162734 7.21124112 21.46002872 3.86328125 26.34375 C-0.19519448 30.63534966 -3.99516789 32.48243095 -9.88671875 32.65625 C-15.17641774 32.59456255 -17.89257388 31.48441721 -22.13671875 28.34375 C-26.75902358 23.35652637 -27.44349244 19.43728015 -27.34765625 12.84375 C-26.9161934 7.73011621 -24.89552469 5.06956438 -21.26171875 1.59375 C-14.20658889 -3.4859435 -7.72235778 -4.19856345 0 0 Z " fill="#037FCD" transform="translate(333.13671875,442.65625)"/>
<path d="M0 0 C1.91619141 -0.00580078 1.91619141 -0.00580078 3.87109375 -0.01171875 C4.86471924 -0.00229248 4.86471924 -0.00229248 5.87841797 0.00732422 C7.90010089 0.02338864 9.91978513 0.00745985 11.94140625 -0.01171875 C13.85759766 -0.00591797 13.85759766 -0.00591797 15.8125 0 C16.98103516 0.00338379 18.14957031 0.00676758 19.35351562 0.01025391 C22.68513607 0.43390046 24.09348312 0.990349 26.40625 3.3984375 C26.96875 6.8359375 26.96875 6.8359375 26.40625 10.3984375 C23.83582413 13.00895365 22.16990091 14.26938983 18.53125 14.88427734 C17.5 14.87605957 16.46875 14.8678418 15.40625 14.859375 C14.271875 14.85550781 13.1375 14.85164063 11.96875 14.84765625 C10.793125 14.82316406 9.6175 14.79867188 8.40625 14.7734375 C6.6428125 14.77150391 6.6428125 14.77150391 4.84375 14.76953125 C-5.21878979 14.66661891 -5.21878979 14.66661891 -9.59375 12.3984375 C-11.59375 9.3984375 -11.59375 9.3984375 -11.46875 6.3984375 C-9.70724713 0.3589991 -5.79064554 0.01676828 0 0 Z " fill="#F2F9FB" transform="translate(382.59375,437.6015625)"/>
<path d="M0 0 C0.67671753 -0.0004985 1.35343506 -0.00099701 2.05065918 -0.00151062 C3.47960348 0.00082702 4.90855212 0.01053742 6.33740234 0.02709961 C8.52348687 0.05069745 10.70835167 0.0476583 12.89453125 0.04101562 C23.61238578 0.08403843 23.61238578 0.08403843 27.03125 2.36328125 C27.46875 5.30078125 27.46875 5.30078125 27.03125 8.36328125 C24.68417442 10.80888313 23.25848307 11.33537082 19.87084961 11.75146484 C18.65405518 11.75484863 17.43726074 11.75823242 16.18359375 11.76171875 C15.20393394 11.76602402 15.20393394 11.76602402 14.20448303 11.77041626 C12.82861459 11.77245155 11.45271687 11.76695903 10.0769043 11.75439453 C7.97183656 11.73830484 5.86868089 11.75427202 3.76367188 11.7734375 C2.42447494 11.77145548 1.08527919 11.76761264 -0.25390625 11.76171875 C-1.46957275 11.75833496 -2.68523926 11.75495117 -3.93774414 11.75146484 C-6.96875 11.36328125 -6.96875 11.36328125 -8.86499023 9.99462891 C-10.45252027 7.64827286 -10.38414534 6.13258352 -9.96875 3.36328125 C-7.41069266 -0.47782325 -4.33039311 -0.01021319 0 0 Z " fill="#FAFCFC" transform="translate(381.96875,463.63671875)"/>
<path d="M0 0 C12.87 0 25.74 0 39 0 C39 3.3 39 6.6 39 10 C30.09 10 21.18 10 12 10 C12 14.29 12 18.58 12 23 C19.59 23 27.18 23 35 23 C35 26.3 35 29.6 35 33 C27.41 33 19.82 33 12 33 C12 32.67 12 32.34 12 32 C19.26 32 26.52 32 34 32 C34 29.69 34 27.38 34 25 C32.9627478 25.00785522 32.9627478 25.00785522 31.90454102 25.01586914 C28.79053648 25.036575 25.67654639 25.04963963 22.5625 25.0625 C21.47388672 25.07087891 20.38527344 25.07925781 19.26367188 25.08789062 C18.22919922 25.09111328 17.19472656 25.09433594 16.12890625 25.09765625 C15.17056885 25.10289307 14.21223145 25.10812988 13.22485352 25.11352539 C11 25 11 25 10 24 C9.92686433 21.46950598 9.90752473 18.96695163 9.9375 16.4375 C9.94201172 15.72658203 9.94652344 15.01566406 9.95117188 14.28320312 C9.96299136 12.52209987 9.98092737 10.76103964 10 9 C12.66178221 7.6691089 14.68739396 7.88731007 17.6640625 7.90234375 C18.78554688 7.90556641 19.90703125 7.90878906 21.0625 7.91210938 C22.238125 7.92048828 23.41375 7.92886719 24.625 7.9375 C25.80835938 7.94201172 26.99171875 7.94652344 28.2109375 7.95117188 C31.14067507 7.96298533 34.07031272 7.97945742 37 8 C37 5.69 37 3.38 37 1 C25.12 1 13.24 1 1 1 C1 18.82 1 36.64 1 55 C13.21 55 25.42 55 38 55 C38 52.69 38 50.38 38 48 C29.09 48 20.18 48 11 48 C11 47.67 11 47.34 11 47 C20.24 47 29.48 47 39 47 C39 50.3 39 53.6 39 57 C26.13 57 13.26 57 0 57 C0 38.19 0 19.38 0 0 Z " fill="#046DC7" transform="translate(766,752)"/>
<path d="M0 0 C13.48539786 -0.40864842 13.48539786 -0.40864842 18 3 C19.40457737 5.80915474 19.24895157 7.88810534 19 11 C17.22015595 14.1359157 16.47691793 14.84102736 13 16 C8.66328697 16.13501597 4.33988266 16.04296914 0 16 C0 10.72 0 5.44 0 0 Z " fill="#F8FBFC" transform="translate(828,762)"/>
<path d="M0 0 C2.85564095 2.56275469 3.84171094 4.17337934 4.5625 7.9375 C3.77566051 12.22140391 2.22980084 14.113795 -1 17 C-5.153141 17.74163232 -7.17395439 17.44893783 -10.875 15.4375 C-13.66605308 12.23599794 -14 10.21894271 -14 6 C-12.78392788 3.11982918 -11.69696456 1.54761501 -9.25 -0.375 C-5.81792041 -1.32835544 -3.42177384 -0.91654656 0 0 Z " fill="#F7FBFD" transform="translate(702,265)"/>
<path d="M0 0 C2.4375 1.5625 2.4375 1.5625 4 4 C4.80016627 8.01732963 4.66540643 10.96196597 2.4375 14.4375 C-0.83565762 16.53567796 -3.11417724 17 -7 17 C-9.80189446 15.23358828 -11.51524911 13.96950178 -13 11 C-13.43023798 7.12785818 -13.31669086 5.47503629 -11.125 2.1875 C-7.38445041 -1.66306575 -5.14450674 -1.1530791 0 0 Z " fill="#F7FBFD" transform="translate(719,246)"/>
<path d="M0 0 C2.12890625 0.41015625 2.12890625 0.41015625 4.69140625 1.91015625 C6.70357515 5.40958042 7.01145513 8.53461552 6.12890625 12.41015625 C4.00390625 15.41015625 4.00390625 15.41015625 1.12890625 17.41015625 C-2.5493497 18.02319891 -4.33677601 17.67137826 -7.68359375 16.03515625 C-9.87109375 14.41015625 -9.87109375 14.41015625 -10.87109375 12.41015625 C-11.24212943 8.47717806 -11.18198506 6.04545588 -9.43359375 2.47265625 C-6.17032224 -0.15387935 -4.10040419 -0.26345266 0 0 Z " fill="#F7FBFC" transform="translate(677.87109375,244.58984375)"/>
<path d="M0 0 C3.65907504 0.68607657 5.35167676 1.98984314 8 4.5625 C9.44430855 7.45111709 9.37688506 9.35897701 9 12.5625 C7.00366611 15.43222996 5.52770117 17.21460765 2.02734375 18.01171875 C-1.3195592 18.19313966 -3.62896551 17.78512069 -6.5 16.0625 C-8.59158203 12.57652996 -8.8876276 9.46034294 -8 5.5625 C-5.55871269 2.11597674 -4.17033126 0.78193711 0 0 Z " fill="#F8FBFC" transform="translate(696,224.4375)"/>
<path d="M0 0 C2.6875 1.625 2.6875 1.625 4 4 C4.5625 7 4.5625 7 4 10 C1.83917549 12.64875262 0.22369301 13.82580882 -3.1953125 14.3125 C-7.34274739 14.42200323 -10.41770198 14.25692349 -14 12 C-16 9 -16 9 -15.875 6 C-13.68567021 -1.50627356 -6.59939028 -0.89126819 0 0 Z " fill="#F4F9FC" transform="translate(432,438)"/>
<path d="M0 0 C3.63 0 7.26 0 11 0 C11 0.33 11 0.66 11 1 C8.03 1 5.06 1 2 1 C2 18.49 2 35.98 2 54 C5.96 54.495 5.96 54.495 10 55 C10 43.45 10 31.9 10 20 C10.66 20.33 11.32 20.66 12 21 C12 32.88 12 44.76 12 57 C8.04 57 4.08 57 0 57 C0 38.19 0 19.38 0 0 Z " fill="#0070C8" transform="translate(449,752)"/>
<path d="M0 0 C1.13308594 -0.01933594 2.26617187 -0.03867187 3.43359375 -0.05859375 C7.14704449 0.53018059 8.34530426 1.45029294 10.5625 4.4375 C10.5 7.0625 10.5 7.0625 9.5625 9.4375 C6.00473788 11.80934142 4.28229393 11.73574394 0.0625 11.75 C-1.65453125 11.77513672 -1.65453125 11.77513672 -3.40625 11.80078125 C-6.4375 11.4375 -6.4375 11.4375 -8.3203125 10.07421875 C-9.92302062 7.72619531 -9.8543201 6.21630066 -9.4375 3.4375 C-6.93045824 -0.20513558 -4.20432127 0.00477221 0 0 Z " fill="#F8FBFC" transform="translate(426.4375,463.5625)"/>
<path d="M0 0 C3.25480435 3.25480435 4.57145905 6.3102642 6.1875 10.5 C6.46013672 11.17675781 6.73277344 11.85351562 7.01367188 12.55078125 C8.17796141 15.50965239 9 17.79271544 9 21 C3.39 21 -2.22 21 -8 21 C-5.36 14.07 -2.72 7.14 0 0 Z " fill="#F4FAFC" transform="translate(186,767)"/>
<path d="M0 0 C1.66666488 2.49999732 2.66929534 4.46982673 3.7265625 7.23046875 C4.0359375 8.03291016 4.3453125 8.83535156 4.6640625 9.66210938 C4.98117187 10.49548828 5.29828125 11.32886719 5.625 12.1875 C5.94984375 13.03248047 6.2746875 13.87746094 6.609375 14.74804688 C7.40952023 16.83077784 8.20519318 18.91522597 9 21 C3.39 21 -2.22 21 -8 21 C-5.96907005 13.62451755 -3.31458488 6.89119228 0 0 Z " fill="#F6FBFC" transform="translate(548,767)"/>
<path d="M0 0 C2.97932935 3.48930465 4.54739251 7.39716735 6.1875 11.625 C6.46013672 12.305625 6.73277344 12.98625 7.01367188 13.6875 C9 18.72550517 9 18.72550517 9 21 C3.39 21 -2.22 21 -8 21 C-7.05125 18.463125 -6.1025 15.92625 -5.125 13.3125 C-4.82996582 12.52270752 -4.53493164 11.73291504 -4.23095703 10.91918945 C-2.86136389 7.26216307 -1.47011409 3.61819341 0 0 Z " fill="#F6FBFC" transform="translate(671,767)"/>
<path d="M0 0 C3.96 0 7.92 0 12 0 C12 18.81 12 37.62 12 57 C8.37 57 4.74 57 1 57 C0.67 56.34 0.34 55.68 0 55 C3.3 55 6.6 55 10 55 C10 37.18 10 19.36 10 1 C7.03 1 4.06 1 1 1 C1 12.55 1 24.1 1 36 C0.67 36 0.34 36 0 36 C0 24.12 0 12.24 0 0 Z " fill="#1C7ACA" transform="translate(623,752)"/>
<path d="M0 0 C0.66 0 1.32 0 2 0 C3.41015625 1.43359375 3.41015625 1.43359375 5.0625 3.4375 C11.68811486 11.73060884 11.68811486 11.73060884 20 18 C19.34 15.69 18.68 13.38 18 11 C20.47032286 13.40170278 22.77024395 15.67177708 24.75 18.5 C28.3947944 22.54977155 33.18169196 24.59084598 38 27 C37.8453125 28.36511719 37.8453125 28.36511719 37.6875 29.7578125 C37.65859426 33.12749361 37.65859426 33.12749361 40.1875 35.1171875 C41.115625 35.69726562 42.04375 36.27734375 43 36.875 C43.928125 37.47054687 44.85625 38.06609375 45.8125 38.6796875 C46.534375 39.11539063 47.25625 39.55109375 48 40 C33.09983614 40 11.71949326 13.75155988 1.546875 3.77734375 C0 2 0 2 0 0 Z " fill="#0874C8" transform="translate(324,621)"/>
<path d="M0 0 C1.0725 -0.01417969 2.145 -0.02835937 3.25 -0.04296875 C6 0.1875 6 0.1875 8 2.1875 C8.25 4.6875 8.25 4.6875 8 7.1875 C6 9.1875 6 9.1875 3.03125 9.453125 C1.8659375 9.44796875 0.700625 9.4428125 -0.5 9.4375 C-1.6653125 9.44265625 -2.830625 9.4478125 -4.03125 9.453125 C-7 9.1875 -7 9.1875 -9 7.1875 C-8.75 4.125 -8.75 4.125 -8 1.1875 C-5.27457733 -0.17521133 -3.03912726 0.01826399 0 0 Z " fill="#F8FCFD" transform="translate(654,498.8125)"/>
<path d="M0 0 C1.3303125 0.00773438 1.3303125 0.00773438 2.6875 0.015625 C3.574375 0.01046875 4.46125 0.0053125 5.375 0 C7.6875 0.265625 7.6875 0.265625 9.6875 2.265625 C9.3575 3.915625 9.0275 5.565625 8.6875 7.265625 C4.7275 7.265625 0.7675 7.265625 -3.3125 7.265625 C-3.6425 5.615625 -3.9725 3.965625 -4.3125 2.265625 C-2.3125 0.265625 -2.3125 0.265625 0 0 Z " fill="#F2F8FB" transform="translate(516.3125,553.734375)"/>
<path d="M0 0 C2.97 0.495 2.97 0.495 6 1 C5.67 2.32 5.34 3.64 5 5 C4.67 5 4.34 5 4 5 C5.65 9.95 7.3 14.9 9 20 C8.34 20 7.68 20 7 20 C6.01540929 17.6062703 5.03721297 15.2102493 4.0625 12.8125 C3.78470703 12.13896484 3.50691406 11.46542969 3.22070312 10.77148438 C1.77378944 7.19778189 0.58836871 3.83556816 0 0 Z " fill="#056DC6" transform="translate(271,531)"/>
<path d="M0 0 C3.63221409 2.73051059 6.45291105 5.54856948 9.25 9.125 C9.93578125 9.99382812 10.6215625 10.86265625 11.328125 11.7578125 C13 14 13 14 14 16 C9.82421627 14.43895935 7.47638361 11.36042632 4.75 8 C4.06164062 7.18015625 4.06164062 7.18015625 3.359375 6.34375 C0 2.26450893 0 2.26450893 0 0 Z " fill="#0E74C9" transform="translate(519,341)"/>
<path d="M0 0 C1.46726798 3.81489674 0.43336419 6.29011622 -1 10 C1.97 10 4.94 10 8 10 C8 10.33 8 10.66 8 11 C4.04 11 0.08 11 -4 11 C-2.7874262 7.27566618 -1.49140021 3.62197194 0 0 Z " fill="#1381CD" transform="translate(523,798)"/>
<path d="M0 0 C-2.64850992 2.64850992 -5.66206447 4.33103223 -9 6 C-9.6875 4.1875 -9.6875 4.1875 -10 2 C-7.63939534 -2.27859594 -4.19472714 -0.87060375 0 0 Z " fill="#0D82CF" transform="translate(284,533)"/>
<path d="M0 0 C0.33 0.66 0.66 1.32 1 2 C-0.28627711 3.17260611 -1.57919783 4.3379283 -2.875 5.5 C-3.59429687 6.1496875 -4.31359375 6.799375 -5.0546875 7.46875 C-7 9 -7 9 -9 9 C-9 8.01 -9 7.02 -9 6 C-7.03125 4.39453125 -7.03125 4.39453125 -4.5 2.8125 C-3.6646875 2.28269531 -2.829375 1.75289062 -1.96875 1.20703125 C-1.3190625 0.80871094 -0.669375 0.41039062 0 0 Z " fill="#0773C9" transform="translate(385,541)"/>
<path d="M0 0 C-0.375 2.9375 -0.375 2.9375 -1 6 C-1.99 6.495 -1.99 6.495 -3 7 C-3 6.34 -3 5.68 -3 5 C-3.66 4.67 -4.32 4.34 -5 4 C-5 3.01 -5 2.02 -5 1 C-3 0 -3 0 0 0 Z " fill="#0A76C9" transform="translate(743,531)"/>
<path d="M0 0 C3.45925163 1.2491742 6.14693203 2.67527795 9 5 C6.98177083 4.70703125 4.96354167 4.4140625 2.9453125 4.12109375 C0.91859333 3.8315703 0.91859333 3.8315703 -1 5 C-0.67 3.35 -0.34 1.7 0 0 Z " fill="#066DC6" transform="translate(225,794)"/>
<path d="M0 0 C0.66 1.32 1.32 2.64 2 4 C0.35 5.65 -1.3 7.3 -3 9 C-3.33 8.34 -3.66 7.68 -4 7 C-3.22265625 5.2734375 -3.22265625 5.2734375 -2.0625 3.375 C-1.381875 2.26125 -0.70125 1.1475 0 0 Z " fill="#0B79CA" transform="translate(354,468)"/>
<path d="M0 0 C5.09448798 0.43173627 8.84512277 0.75400216 13 4 C13 4.66 13 5.32 13 6 C12.15695312 5.55527344 12.15695312 5.55527344 11.296875 5.1015625 C8.98032695 3.99056497 6.69290908 3.16535294 4.25 2.375 C3.05117187 1.98441406 3.05117187 1.98441406 1.828125 1.5859375 C1.22484375 1.39257812 0.6215625 1.19921875 0 1 C0 0.67 0 0.34 0 0 Z " fill="#0566C3" transform="translate(248,752)"/>
<path d="M0 0 C2.97 0.495 2.97 0.495 6 1 C5.67 2.32 5.34 3.64 5 5 C3.68 5 2.36 5 1 5 C0.67 3.35 0.34 1.7 0 0 Z " fill="#0A77C9" transform="translate(271,531)"/>
<path d="M0 0 C0.66 0.99 1.32 1.98 2 3 C0.68 4.32 -0.64 5.64 -2 7 C-2.99 6.67 -3.98 6.34 -5 6 C-3.35 4.02 -1.7 2.04 0 0 Z " fill="#0E7CCD" transform="translate(285,357)"/>
</svg>
